<svg width="264" height="235" viewBox="0 0 264 235" fill="none" xmlns="http://www.w3.org/2000/svg">
<path d="M131.883 140.636C144.853 140.636 155.368 130.121 155.368 117.151C155.368 104.18 144.853 93.6654 131.883 93.6654C118.912 93.6654 108.398 104.18 108.398 117.151C108.398 130.121 118.912 140.636 131.883 140.636Z" fill="#33373E"/>
<path fill-rule="evenodd" clip-rule="evenodd" d="M131.888 69.4009C163.42 69.4009 192.712 73.9255 214.798 81.529C241.409 90.6905 257.771 104.577 257.771 117.151C257.771 130.254 240.431 145.007 211.854 154.475C190.25 161.633 161.819 165.37 131.888 165.37C101.199 165.37 72.1388 161.862 50.2907 154.396C22.6489 144.948 6 130.005 6 117.151C6 104.679 21.6218 90.8998 47.8587 81.7523C70.0275 74.0233 100.043 69.4009 131.883 69.4009H131.888Z" stroke="#33373E" stroke-width="11.2354"/>
<path fill-rule="evenodd" clip-rule="evenodd" d="M90.323 93.4129C106.076 66.0979 124.628 42.983 142.249 27.6486C163.479 9.17302 183.683 1.93744 194.575 8.21848C205.926 14.7645 210.043 37.1561 203.969 66.6405C199.381 88.9324 188.411 115.426 173.458 141.356C158.126 167.94 140.571 191.362 123.19 206.554C101.197 225.78 79.934 232.737 68.7993 226.316C57.9946 220.09 53.8628 199.669 59.0461 172.371C63.4255 149.306 74.416 120.995 90.3178 93.4125L90.323 93.4129Z" stroke="#33373E" stroke-width="11.2354"/>
<path fill-rule="evenodd" clip-rule="evenodd" d="M90.3525 141.425C74.5551 114.141 63.7996 86.5182 59.3101 63.5943C53.9059 35.974 57.7269 14.8562 68.6093 8.55694C79.9495 1.99175 101.405 9.60745 123.915 29.5952C140.935 44.7067 158.412 67.4382 173.408 93.3432C188.784 119.902 200.308 146.809 204.791 169.454C210.463 198.111 205.872 220.006 194.748 226.446C183.954 232.694 164.202 226.079 143.14 207.954C125.345 192.641 106.306 168.98 90.3525 141.424V141.425Z" stroke="#33373E" stroke-width="11.2354"/>
</svg>
